<svg xmlns="http://www.w3.org/2000/svg" width="151.188" height="48.052" viewBox="0 0 151.188 48.052">
	<g transform="translate(-126.651 -907.853)" style="isolation:isolate">
		<g style="isolation:isolate">
			<path d="M139.558,953a1.006,1.006,0,0,1,.562-.187.854.854,0,0,1,.844.843.758.758,0,0,1-.25.578.836.836,0,0,1-.594.235,1.007,1.007,0,0,1-.562-.188H127.651V916.718a11.391,11.391,0,0,1,.313-2.672,6.088,6.088,0,0,1,1.094-2.313,5.674,5.674,0,0,1,2.078-1.64,7.434,7.434,0,0,1,3.234-.625h5.188a1.007,1.007,0,0,1,.562-.188.844.844,0,0,1,0,1.688,1,1,0,0,1-.562-.219H134.37a5.966,5.966,0,0,0-2.641.516,4.515,4.515,0,0,0-1.671,1.359,5.142,5.142,0,0,0-.875,1.922,9.57,9.57,0,0,0-.25,2.172v5.562h8.781a1.006,1.006,0,0,1,.562-.187.839.839,0,0,1,.594.234.761.761,0,0,1,.25.578.854.854,0,0,1-.844.844,1.006,1.006,0,0,1-.562-.187h-8.781V953Z" fill="#ffffff"/>
			<path d="M157.808,953.562a.869.869,0,0,1,.187.531.761.761,0,0,1-.25.578.839.839,0,0,1-.594.234.8.8,0,0,1-.812-.812.869.869,0,0,1,.187-.531V929a9.772,9.772,0,0,0-.25-2.187,5.453,5.453,0,0,0-.859-1.954,4.671,4.671,0,0,0-1.625-1.406,5.409,5.409,0,0,0-2.578-.547,4.818,4.818,0,0,0-2.344.547,5.186,5.186,0,0,0-1.656,1.406,6.065,6.065,0,0,0-.985,1.954A7.606,7.606,0,0,0,145.9,929v24.563a.87.87,0,0,1,.188.531.761.761,0,0,1-.25.578.839.839,0,0,1-.594.234.8.8,0,0,1-.812-.812.869.869,0,0,1,.187-.531v-30.5a1.161,1.161,0,0,1-.187-.594.8.8,0,0,1,.812-.813.836.836,0,0,1,.594.235.76.76,0,0,1,.25.578,1.163,1.163,0,0,1-.188.594v1.593a5.987,5.987,0,0,1,2.125-2.265,6.219,6.219,0,0,1,3.188-.735,7,7,0,0,1,3.172.641,5.676,5.676,0,0,1,2.031,1.672,6.336,6.336,0,0,1,1.078,2.344,11.581,11.581,0,0,1,.313,2.687Z" fill="#ffffff"/>
			<path d="M175.995,953.562a.87.87,0,0,1,.188.531.761.761,0,0,1-.25.578.841.841,0,0,1-.594.234.8.8,0,0,1-.813-.812.87.87,0,0,1,.188-.531V929a9.772,9.772,0,0,0-.25-2.187,5.438,5.438,0,0,0-.86-1.954,4.67,4.67,0,0,0-1.625-1.406,5.406,5.406,0,0,0-2.578-.547,4.817,4.817,0,0,0-2.343.547,5.2,5.2,0,0,0-1.657,1.406,6.083,6.083,0,0,0-.984,1.954,7.571,7.571,0,0,0-.328,2.187v24.563a.869.869,0,0,1,.187.531.761.761,0,0,1-.25.578.838.838,0,0,1-.593.234.8.8,0,0,1-.813-.812.87.87,0,0,1,.188-.531v-30.5a1.163,1.163,0,0,1-.188-.594.8.8,0,0,1,.813-.813.835.835,0,0,1,.593.235.76.76,0,0,1,.25.578,1.161,1.161,0,0,1-.187.594v1.593a5.987,5.987,0,0,1,2.125-2.265,6.215,6.215,0,0,1,3.187-.735,6.992,6.992,0,0,1,3.172.641,5.659,5.659,0,0,1,2.031,1.672,6.338,6.338,0,0,1,1.079,2.344,11.58,11.58,0,0,1,.312,2.687Z" fill="#ffffff"/>
			<path d="M187.542,953.655a1.015,1.015,0,0,1,.125.438.761.761,0,0,1-.25.578.839.839,0,0,1-.594.234.8.8,0,0,1-.812-.812,1.873,1.873,0,0,1,.015-.219.371.371,0,0,1,.11-.219l-6.657-43.343a.887.887,0,0,1-.015-1.219.763.763,0,0,1,.578-.25.861.861,0,0,1,.812,1.094.741.741,0,0,1-.093.187l6.062,39.625,6.094-39.625a.347.347,0,0,1-.109-.187,1.519,1.519,0,0,1-.016-.25.841.841,0,0,1,.234-.594.764.764,0,0,1,.578-.25.854.854,0,0,1,.844.844.666.666,0,0,1-.078.328c-.052.093-.109.193-.172.3Z" fill="#ffffff"/>
			<path d="M199.245,914.593a.677.677,0,0,1,.188.5.84.84,0,0,1-.235.594.758.758,0,0,1-.578.25.854.854,0,0,1-.844-.844.677.677,0,0,1,.188-.5v-1.844a1.16,1.16,0,0,1-.188-.594.761.761,0,0,1,.25-.578.841.841,0,0,1,.594-.234.8.8,0,0,1,.813.812,1.16,1.16,0,0,1-.188.594Zm0,38.969a.87.87,0,0,1,.188.531.8.8,0,0,1-.813.812.841.841,0,0,1-.594-.234.761.761,0,0,1-.25-.578.87.87,0,0,1,.188-.531v-30.5a1.163,1.163,0,0,1-.188-.594.759.759,0,0,1,.25-.578.837.837,0,0,1,.594-.235.8.8,0,0,1,.813.813,1.163,1.163,0,0,1-.188.594Z" fill="#ffffff"/>
			<path d="M214.526,940.718a8.969,8.969,0,0,1,1.344,1.531,7.285,7.285,0,0,1,.828,1.594,7.747,7.747,0,0,1,.406,1.625,11.771,11.771,0,0,1,.11,1.594,13.768,13.768,0,0,1-.328,3.062,6.533,6.533,0,0,1-1.125,2.5,5.4,5.4,0,0,1-2.141,1.672,8.182,8.182,0,0,1-3.375.609,7.892,7.892,0,0,1-3.25-.593,5.941,5.941,0,0,1-2.141-1.579,6.573,6.573,0,0,1-1.234-2.265,10.341,10.341,0,0,1-.469-2.656.588.588,0,0,1-.14-.25,1.056,1.056,0,0,1-.047-.313.842.842,0,0,1,.234-.594.763.763,0,0,1,.578-.25.854.854,0,0,1,.844.844.959.959,0,0,1-.125.375,8.551,8.551,0,0,0,.359,2.219,5.878,5.878,0,0,0,1,1.953,4.977,4.977,0,0,0,1.75,1.391,5.939,5.939,0,0,0,2.641.531,6.443,6.443,0,0,0,2.938-.578,4.49,4.49,0,0,0,1.75-1.532,5.559,5.559,0,0,0,.828-2.14,14.285,14.285,0,0,0,.2-2.406,7.708,7.708,0,0,0-.578-2.985,7.212,7.212,0,0,0-1.735-2.484l-7.25-6.5a7.721,7.721,0,0,1-1.2-1.36,5.909,5.909,0,0,1-.7-1.406,7.436,7.436,0,0,1-.344-1.515,14.315,14.315,0,0,1-.093-1.688,11.317,11.317,0,0,1,.343-2.812,6.462,6.462,0,0,1,1.141-2.375,5.772,5.772,0,0,1,2.078-1.657,7.172,7.172,0,0,1,3.156-.625,6.676,6.676,0,0,1,2.875.563,5.386,5.386,0,0,1,1.938,1.5,6.483,6.483,0,0,1,1.125,2.14,10.046,10.046,0,0,1,.437,2.516.626.626,0,0,1,.219.5.854.854,0,0,1-.844.844.746.746,0,0,1-.531-.25.808.808,0,0,1-.25-.594.562.562,0,0,1,.219-.437,8.551,8.551,0,0,0-.375-2.032,5.214,5.214,0,0,0-.938-1.765,4.832,4.832,0,0,0-1.578-1.25,5.018,5.018,0,0,0-2.3-.485,5.585,5.585,0,0,0-2.547.532,4.737,4.737,0,0,0-1.687,1.39,5.533,5.533,0,0,0-.922,1.985,9.523,9.523,0,0,0-.281,2.312,9.721,9.721,0,0,0,.437,3,4.8,4.8,0,0,0,1.469,2.063Z" fill="#ffffff"/>
			<path d="M222.87,914.593a.677.677,0,0,1,.188.5.84.84,0,0,1-.235.594.758.758,0,0,1-.578.25.854.854,0,0,1-.844-.844.677.677,0,0,1,.188-.5v-1.844a1.16,1.16,0,0,1-.188-.594.761.761,0,0,1,.25-.578.841.841,0,0,1,.594-.234.8.8,0,0,1,.813.812,1.16,1.16,0,0,1-.188.594Zm0,38.969a.87.87,0,0,1,.188.531.8.8,0,0,1-.813.812.841.841,0,0,1-.594-.234.761.761,0,0,1-.25-.578.87.87,0,0,1,.188-.531v-30.5a1.163,1.163,0,0,1-.188-.594.759.759,0,0,1,.25-.578.837.837,0,0,1,.594-.235.8.8,0,0,1,.813.813,1.163,1.163,0,0,1-.188.594Z" fill="#ffffff"/>
			<path d="M240.995,947.562a11.021,11.021,0,0,1-.328,2.687,6.432,6.432,0,0,1-1.109,2.344,5.857,5.857,0,0,1-2.032,1.672,6.826,6.826,0,0,1-3.125.64,6.922,6.922,0,0,1-3.14-.64,5.671,5.671,0,0,1-2.032-1.672,6.551,6.551,0,0,1-1.093-2.344,11.021,11.021,0,0,1-.328-2.687V929a11.027,11.027,0,0,1,.328-2.687,6.543,6.543,0,0,1,1.093-2.344,5.671,5.671,0,0,1,2.032-1.672,6.908,6.908,0,0,1,3.14-.641,6.813,6.813,0,0,1,3.125.641,5.857,5.857,0,0,1,2.032,1.672,6.424,6.424,0,0,1,1.109,2.344,11.027,11.027,0,0,1,.328,2.687Zm-11.906,0a9.41,9.41,0,0,0,.265,2.218,5.629,5.629,0,0,0,.875,1.953,4.475,4.475,0,0,0,1.641,1.391,5.471,5.471,0,0,0,2.531.531,5.55,5.55,0,0,0,2.563-.531,4.464,4.464,0,0,0,1.64-1.391,5.409,5.409,0,0,0,.86-1.953,9.893,9.893,0,0,0,.25-2.218V929a9.772,9.772,0,0,0-.25-2.187,5.438,5.438,0,0,0-.86-1.954,4.635,4.635,0,0,0-1.64-1.406,5.434,5.434,0,0,0-2.563-.547,5.357,5.357,0,0,0-2.531.547,4.647,4.647,0,0,0-1.641,1.406,5.66,5.66,0,0,0-.875,1.954,9.3,9.3,0,0,0-.265,2.187Z" fill="#ffffff"/>
			<path d="M258.964,953.562a.869.869,0,0,1,.187.531.761.761,0,0,1-.25.578.838.838,0,0,1-.593.234.8.8,0,0,1-.813-.812.87.87,0,0,1,.188-.531V929a9.772,9.772,0,0,0-.25-2.187,5.455,5.455,0,0,0-.86-1.954,4.67,4.67,0,0,0-1.625-1.406,5.409,5.409,0,0,0-2.578-.547,4.821,4.821,0,0,0-2.344.547,5.2,5.2,0,0,0-1.656,1.406,6.063,6.063,0,0,0-.984,1.954,7.572,7.572,0,0,0-.328,2.187v24.563a.869.869,0,0,1,.187.531.761.761,0,0,1-.25.578.839.839,0,0,1-.594.234.8.8,0,0,1-.812-.812.869.869,0,0,1,.187-.531v-30.5a1.161,1.161,0,0,1-.187-.594.8.8,0,0,1,.812-.813.836.836,0,0,1,.594.235.759.759,0,0,1,.25.578,1.161,1.161,0,0,1-.187.594v1.593a5.987,5.987,0,0,1,2.125-2.265,6.215,6.215,0,0,1,3.187-.735,6.992,6.992,0,0,1,3.172.641,5.659,5.659,0,0,1,2.031,1.672,6.336,6.336,0,0,1,1.078,2.344,11.581,11.581,0,0,1,.313,2.687Z" fill="#ffffff"/>
			<path d="M273.995,940.718a9.013,9.013,0,0,1,1.344,1.531,7.329,7.329,0,0,1,.828,1.594,7.747,7.747,0,0,1,.406,1.625,11.934,11.934,0,0,1,.11,1.594,13.709,13.709,0,0,1-.329,3.062,6.5,6.5,0,0,1-1.125,2.5,5.394,5.394,0,0,1-2.14,1.672,8.188,8.188,0,0,1-3.375.609,7.892,7.892,0,0,1-3.25-.593,5.941,5.941,0,0,1-2.141-1.579,6.541,6.541,0,0,1-1.234-2.265,10.3,10.3,0,0,1-.469-2.656.6.6,0,0,1-.141-.25,1.088,1.088,0,0,1-.046-.313.842.842,0,0,1,.234-.594.763.763,0,0,1,.578-.25.854.854,0,0,1,.844.844.959.959,0,0,1-.125.375,8.468,8.468,0,0,0,.359,2.219,5.878,5.878,0,0,0,1,1.953,4.959,4.959,0,0,0,1.75,1.391,5.939,5.939,0,0,0,2.641.531,6.439,6.439,0,0,0,2.937-.578,4.49,4.49,0,0,0,1.75-1.532,5.543,5.543,0,0,0,.828-2.14,14.183,14.183,0,0,0,.2-2.406,7.691,7.691,0,0,0-.579-2.985,7.2,7.2,0,0,0-1.734-2.484l-7.25-6.5a7.721,7.721,0,0,1-1.2-1.36,5.91,5.91,0,0,1-.7-1.406,7.437,7.437,0,0,1-.344-1.515,14.309,14.309,0,0,1-.094-1.688,11.317,11.317,0,0,1,.344-2.812,6.447,6.447,0,0,1,1.141-2.375,5.764,5.764,0,0,1,2.078-1.657,7.169,7.169,0,0,1,3.156-.625,6.676,6.676,0,0,1,2.875.563,5.386,5.386,0,0,1,1.938,1.5,6.483,6.483,0,0,1,1.125,2.14,10.046,10.046,0,0,1,.437,2.516.626.626,0,0,1,.219.5.854.854,0,0,1-.844.844.746.746,0,0,1-.531-.25.808.808,0,0,1-.25-.594.562.562,0,0,1,.219-.437,8.553,8.553,0,0,0-.375-2.032,5.214,5.214,0,0,0-.938-1.765,4.831,4.831,0,0,0-1.578-1.25,5.021,5.021,0,0,0-2.3-.485,5.582,5.582,0,0,0-2.547.532,4.738,4.738,0,0,0-1.687,1.39,5.517,5.517,0,0,0-.922,1.985,9.474,9.474,0,0,0-.281,2.312,9.722,9.722,0,0,0,.437,3,4.8,4.8,0,0,0,1.469,2.063Z" fill="#ffffff"/>
		</g>
		<g style="isolation:isolate">
			<path d="M140.12,955.468a1.909,1.909,0,0,1-.821-.188H126.651V916.718a12.473,12.473,0,0,1,.34-2.905,7.1,7.1,0,0,1,1.274-2.689,6.693,6.693,0,0,1,2.436-1.932,8.447,8.447,0,0,1,3.669-.724H139.3a1.854,1.854,0,0,1,2.12.353,1.83,1.83,0,0,1,0,2.606,1.774,1.774,0,0,1-2.139.322h-4.91a5.028,5.028,0,0,0-2.2.413,3.507,3.507,0,0,0-1.31,1.058,4.123,4.123,0,0,0-.7,1.552,8.645,8.645,0,0,0-.223,1.946v4.562h7.522a1.879,1.879,0,0,1,2.1.317,1.752,1.752,0,0,1,.566,1.308,1.8,1.8,0,0,1-.545,1.3,1.85,1.85,0,0,1-2.12.354h-7.522V952H139.3a1.852,1.852,0,0,1,2.12.354,1.806,1.806,0,0,1,.545,1.3,1.753,1.753,0,0,1-.567,1.309A1.84,1.84,0,0,1,140.12,955.468Z" fill="#ffffff"/><path d="M157.151,955.905a1.8,1.8,0,0,1-1.812-1.812,1.841,1.841,0,0,1,.187-.8V929a8.841,8.841,0,0,0-.224-1.965,4.5,4.5,0,0,0-.7-1.6,3.68,3.68,0,0,0-1.285-1.105,4.466,4.466,0,0,0-2.1-.427,3.845,3.845,0,0,0-1.864.425,4.155,4.155,0,0,0-1.342,1.136,5.046,5.046,0,0,0-.82,1.633,6.606,6.606,0,0,0-.287,1.9v24.289a1.842,1.842,0,0,1,.188.8,1.749,1.749,0,0,1-.567,1.308,1.877,1.877,0,0,1-2.562-.023,1.778,1.778,0,0,1-.527-1.285,1.841,1.841,0,0,1,.187-.8V923.3a2.028,2.028,0,0,1-.187-.837,1.777,1.777,0,0,1,.527-1.285,1.876,1.876,0,0,1,2.562-.024,1.766,1.766,0,0,1,.471.718,6.083,6.083,0,0,1,.527-.35,7.221,7.221,0,0,1,3.694-.872,8.007,8.007,0,0,1,3.623.748,6.7,6.7,0,0,1,2.383,1.968,7.367,7.367,0,0,1,1.248,2.709,12.656,12.656,0,0,1,.34,2.919v24.289a1.841,1.841,0,0,1,.187.8,1.752,1.752,0,0,1-.566,1.308A1.845,1.845,0,0,1,157.151,955.905Z" fill="#ffffff"/><path d="M175.339,955.905a1.8,1.8,0,0,1-1.813-1.812,1.842,1.842,0,0,1,.188-.8V929a8.784,8.784,0,0,0-.225-1.965,4.482,4.482,0,0,0-.7-1.6,3.668,3.668,0,0,0-1.284-1.105,4.467,4.467,0,0,0-2.1-.427,3.85,3.85,0,0,0-1.864.425,4.166,4.166,0,0,0-1.342,1.136,5.087,5.087,0,0,0-.82,1.633,6.64,6.64,0,0,0-.286,1.9v24.289a1.841,1.841,0,0,1,.187.8,1.752,1.752,0,0,1-.566,1.308,1.878,1.878,0,0,1-2.563-.023,1.782,1.782,0,0,1-.527-1.285,1.842,1.842,0,0,1,.188-.8V923.3a2.03,2.03,0,0,1-.188-.837,1.781,1.781,0,0,1,.527-1.285,1.877,1.877,0,0,1,2.563-.024,1.766,1.766,0,0,1,.471.718,6.067,6.067,0,0,1,.526-.35,7.223,7.223,0,0,1,3.694-.872,8,8,0,0,1,3.623.748,6.687,6.687,0,0,1,2.383,1.968,7.351,7.351,0,0,1,1.248,2.709,12.6,12.6,0,0,1,.34,2.919v24.289a1.842,1.842,0,0,1,.188.8,1.753,1.753,0,0,1-.567,1.308A1.842,1.842,0,0,1,175.339,955.905Z" fill="#ffffff"/><path d="M186.823,955.905a1.8,1.8,0,0,1-1.812-1.812,2.911,2.911,0,0,1,.023-.346,1.378,1.378,0,0,1,.063-.268l-6.566-42.755a1.865,1.865,0,0,1-.3-1.037,1.82,1.82,0,0,1,3.112-1.3,1.869,1.869,0,0,1,.464,1.864l-.009.027,5.03,32.878,5.05-32.84a1.336,1.336,0,0,1-.054-.208,2.506,2.506,0,0,1-.03-.418,1.82,1.82,0,0,1,3.111-1.3,1.8,1.8,0,0,1,.545,1.3,1.654,1.654,0,0,1-.2.811c-.027.051-.057.1-.088.156l-6.585,42.88a1.766,1.766,0,0,1-.471,1.867A1.845,1.845,0,0,1,186.823,955.905Zm-.252-6.005.268,1.746.267-1.746Z" fill="#ffffff"/><path d="M198.62,955.905a1.842,1.842,0,0,1-1.277-.5,1.753,1.753,0,0,1-.567-1.308,1.842,1.842,0,0,1,.188-.8V923.3a2.03,2.03,0,0,1-.188-.837,1.757,1.757,0,0,1,.567-1.309,1.876,1.876,0,0,1,2.562.024,1.778,1.778,0,0,1,.528,1.285,2.03,2.03,0,0,1-.188.837v29.983a1.842,1.842,0,0,1,.188.8,1.8,1.8,0,0,1-1.813,1.812Zm0-38.968a1.854,1.854,0,0,1-1.844-1.844,1.739,1.739,0,0,1,.188-.807v-1.294a2.023,2.023,0,0,1-.188-.837,1.753,1.753,0,0,1,.567-1.308,1.876,1.876,0,0,1,2.562.023,1.779,1.779,0,0,1,.528,1.285,2.023,2.023,0,0,1-.188.837v1.294a1.739,1.739,0,0,1,.188.807,1.833,1.833,0,0,1-.506,1.279A1.755,1.755,0,0,1,198.62,916.937Z" fill="#ffffff"/><path d="M210.245,955.905a8.9,8.9,0,0,1-3.662-.682,6.956,6.956,0,0,1-2.494-1.846,7.6,7.6,0,0,1-1.422-2.607,11.26,11.26,0,0,1-.5-2.631,1.62,1.62,0,0,1-.116-.291,2.07,2.07,0,0,1-.089-.6,1.82,1.82,0,0,1,3.111-1.3,1.806,1.806,0,0,1,.545,1.3,1.534,1.534,0,0,1-.116.566,7.517,7.517,0,0,0,.309,1.741,4.875,4.875,0,0,0,.829,1.624,3.932,3.932,0,0,0,1.4,1.109,4.977,4.977,0,0,0,2.2.429,5.5,5.5,0,0,0,2.481-.468,3.487,3.487,0,0,0,1.371-1.19,4.6,4.6,0,0,0,.678-1.761,13.3,13.3,0,0,0,.189-2.237,6.738,6.738,0,0,0-.5-2.6,6.244,6.244,0,0,0-1.5-2.142l-7.231-6.482a8.8,8.8,0,0,1-1.364-1.545,6.915,6.915,0,0,1-.82-1.643,8.387,8.387,0,0,1-.391-1.718,15.472,15.472,0,0,1-.1-1.807,12.347,12.347,0,0,1,.375-3.061,7.468,7.468,0,0,1,1.318-2.738,6.773,6.773,0,0,1,2.431-1.943,8.167,8.167,0,0,1,3.594-.727,7.7,7.7,0,0,1,3.3.658,6.428,6.428,0,0,1,2.291,1.78,7.534,7.534,0,0,1,1.3,2.468A11.081,11.081,0,0,1,218.13,928a1.667,1.667,0,0,1,.24.876,1.854,1.854,0,0,1-1.844,1.844,1.723,1.723,0,0,1-1.238-.543,1.8,1.8,0,0,1-.543-1.3,1.516,1.516,0,0,1,.19-.736,7.587,7.587,0,0,0-.3-1.435,4.229,4.229,0,0,0-.757-1.431,3.823,3.823,0,0,0-1.257-.991,4.074,4.074,0,0,0-1.844-.376,4.63,4.63,0,0,0-2.094.424,3.711,3.711,0,0,0-1.338,1.1,4.562,4.562,0,0,0-.754,1.629,8.588,8.588,0,0,0-.251,2.07,8.739,8.739,0,0,0,.381,2.669,3.776,3.776,0,0,0,1.174,1.633l7.31,6.556a9.934,9.934,0,0,1,1.492,1.705,8.24,8.24,0,0,1,.941,1.812,8.8,8.8,0,0,1,.459,1.835,13.034,13.034,0,0,1,.118,1.728,14.762,14.762,0,0,1-.354,3.285,7.57,7.57,0,0,1-1.3,2.878,6.425,6.425,0,0,1-2.528,1.982A9.2,9.2,0,0,1,210.245,955.905Z" fill="#ffffff"/><path d="M222.245,955.905a1.842,1.842,0,0,1-1.277-.5,1.753,1.753,0,0,1-.567-1.308,1.842,1.842,0,0,1,.188-.8V923.3a2.03,2.03,0,0,1-.188-.837,1.757,1.757,0,0,1,.567-1.309,1.876,1.876,0,0,1,2.562.024,1.778,1.778,0,0,1,.528,1.285,2.03,2.03,0,0,1-.188.837v29.983a1.842,1.842,0,0,1,.188.8,1.8,1.8,0,0,1-1.813,1.812Zm0-38.968a1.854,1.854,0,0,1-1.844-1.844,1.739,1.739,0,0,1,.188-.807v-1.294a2.023,2.023,0,0,1-.188-.837,1.753,1.753,0,0,1,.567-1.308,1.876,1.876,0,0,1,2.562.023,1.779,1.779,0,0,1,.528,1.285,2.023,2.023,0,0,1-.188.837v1.294a1.739,1.739,0,0,1,.188.807,1.833,1.833,0,0,1-.506,1.279A1.755,1.755,0,0,1,222.245,916.937Z" fill="#ffffff"/><path d="M234.4,955.905a7.927,7.927,0,0,1-3.591-.748,6.67,6.67,0,0,1-2.383-1.968,7.573,7.573,0,0,1-1.261-2.7,12.059,12.059,0,0,1-.358-2.929V929a12.074,12.074,0,0,1,.358-2.93,7.573,7.573,0,0,1,1.261-2.7,6.68,6.68,0,0,1,2.382-1.967,7.922,7.922,0,0,1,3.592-.749,7.819,7.819,0,0,1,3.581.751,6.861,6.861,0,0,1,2.372,1.958,7.422,7.422,0,0,1,1.283,2.7,12.074,12.074,0,0,1,.358,2.93v18.563a12.059,12.059,0,0,1-.358,2.929,7.422,7.422,0,0,1-1.283,2.7,6.834,6.834,0,0,1-2.372,1.958A7.819,7.819,0,0,1,234.4,955.905Zm0-32a4.4,4.4,0,0,0-2.063.431,3.6,3.6,0,0,0-1.293,1.1,4.681,4.681,0,0,0-.719,1.609,8.33,8.33,0,0,0-.237,1.952v18.563a8.449,8.449,0,0,0,.237,1.983,4.681,4.681,0,0,0,.719,1.609,3.437,3.437,0,0,0,1.282,1.08,4.521,4.521,0,0,0,2.074.421,4.609,4.609,0,0,0,2.1-.42,3.451,3.451,0,0,0,1.283-1.08,4.474,4.474,0,0,0,.7-1.6,8.91,8.91,0,0,0,.225-2V929a8.784,8.784,0,0,0-.225-1.965,4.482,4.482,0,0,0-.7-1.6,3.609,3.609,0,0,0-1.294-1.1A4.486,4.486,0,0,0,234.4,923.905Z" fill="#ffffff"/><path d="M258.308,955.905a1.8,1.8,0,0,1-1.813-1.812,1.842,1.842,0,0,1,.188-.8V929a8.843,8.843,0,0,0-.225-1.965,4.5,4.5,0,0,0-.7-1.6,3.676,3.676,0,0,0-1.284-1.105,4.473,4.473,0,0,0-2.1-.427,3.845,3.845,0,0,0-1.864.425,4.166,4.166,0,0,0-1.342,1.136,5.067,5.067,0,0,0-.82,1.633,6.605,6.605,0,0,0-.286,1.9v24.289a1.841,1.841,0,0,1,.187.8,1.752,1.752,0,0,1-.566,1.308,1.878,1.878,0,0,1-2.563-.023,1.778,1.778,0,0,1-.527-1.285,1.841,1.841,0,0,1,.187-.8V923.3a2.028,2.028,0,0,1-.187-.837,1.777,1.777,0,0,1,.527-1.285,1.877,1.877,0,0,1,2.563-.024,1.763,1.763,0,0,1,.47.718,6.082,6.082,0,0,1,.527-.35,7.221,7.221,0,0,1,3.694-.872,8,8,0,0,1,3.623.748,6.7,6.7,0,0,1,2.383,1.968,7.351,7.351,0,0,1,1.248,2.709,12.6,12.6,0,0,1,.34,2.919v24.289a1.841,1.841,0,0,1,.187.8,1.752,1.752,0,0,1-.566,1.308A1.844,1.844,0,0,1,258.308,955.905Z" fill="#ffffff"/><path d="M269.714,955.905a8.9,8.9,0,0,1-3.662-.682,6.956,6.956,0,0,1-2.494-1.846,7.582,7.582,0,0,1-1.422-2.607,11.262,11.262,0,0,1-.5-2.631,1.7,1.7,0,0,1-.117-.291,2.1,2.1,0,0,1-.088-.6,1.82,1.82,0,0,1,3.111-1.3,1.81,1.81,0,0,1,.545,1.3,1.534,1.534,0,0,1-.116.566,7.516,7.516,0,0,0,.308,1.741,4.913,4.913,0,0,0,.829,1.624,3.945,3.945,0,0,0,1.405,1.109,4.977,4.977,0,0,0,2.2.429,5.49,5.49,0,0,0,2.48-.468,3.473,3.473,0,0,0,1.371-1.19,4.6,4.6,0,0,0,.679-1.761,13.3,13.3,0,0,0,.189-2.237,6.738,6.738,0,0,0-.5-2.6,6.244,6.244,0,0,0-1.5-2.142l-7.231-6.482a8.8,8.8,0,0,1-1.364-1.545,6.878,6.878,0,0,1-.82-1.643,8.386,8.386,0,0,1-.391-1.718,15.463,15.463,0,0,1-.1-1.807,12.347,12.347,0,0,1,.375-3.061,7.47,7.47,0,0,1,1.319-2.738,6.778,6.778,0,0,1,2.43-1.943,8.175,8.175,0,0,1,3.6-.727,7.7,7.7,0,0,1,3.3.658,6.428,6.428,0,0,1,2.291,1.78,7.534,7.534,0,0,1,1.3,2.468A11.08,11.08,0,0,1,277.6,928a1.667,1.667,0,0,1,.24.876,1.854,1.854,0,0,1-1.844,1.844,1.723,1.723,0,0,1-1.238-.543,1.8,1.8,0,0,1-.543-1.3,1.515,1.515,0,0,1,.189-.736,7.508,7.508,0,0,0-.3-1.435,4.229,4.229,0,0,0-.757-1.431,3.823,3.823,0,0,0-1.257-.991,4.074,4.074,0,0,0-1.844-.376,4.637,4.637,0,0,0-2.1.424,3.707,3.707,0,0,0-1.337,1.1,4.562,4.562,0,0,0-.754,1.629,8.589,8.589,0,0,0-.251,2.07,8.774,8.774,0,0,0,.38,2.669,3.785,3.785,0,0,0,1.174,1.633l7.311,6.556a9.934,9.934,0,0,1,1.492,1.705,8.237,8.237,0,0,1,.94,1.812,8.745,8.745,0,0,1,.459,1.835,12.869,12.869,0,0,1,.119,1.728,14.822,14.822,0,0,1-.354,3.285,7.556,7.556,0,0,1-1.3,2.878,6.422,6.422,0,0,1-2.527,1.982A9.206,9.206,0,0,1,269.714,955.905Z" fill="#ffffff"/></g></g></svg>