<svg xmlns="http://www.w3.org/2000/svg" width="11.646" height="14.338" viewBox="0 0 11.646 14.338">
	<g transform="translate(0 0.001)">
		<path d="M222.734,154.7a.336.336,0,0,0-.336.336v6.347a.336.336,0,0,0,.672,0v-6.347A.336.336,0,0,0,222.734,154.7Zm0,0" transform="translate(-214.93 -149.509)" fill="#c7112b"/>
		<path d="M104.734,154.7a.336.336,0,0,0-.336.336v6.347a.336.336,0,0,0,.672,0v-6.347A.336.336,0,0,0,104.734,154.7Zm0,0" transform="translate(-100.892 -149.509)" fill="#c7112b"/>
		<path d="M.95,4.267V12.54a1.853,1.853,0,0,0,.493,1.278,1.654,1.654,0,0,0,1.2.519H9a1.653,1.653,0,0,0,1.2-.519,1.853,1.853,0,0,0,.493-1.278V4.267a1.283,1.283,0,0,0-.329-2.523H8.64v-.42A1.319,1.319,0,0,0,7.31,0H4.329A1.319,1.319,0,0,0,3,1.325v.42H1.28A1.283,1.283,0,0,0,.95,4.267ZM9,13.665H2.643A1.063,1.063,0,0,1,1.622,12.54V4.3h8.395V12.54A1.063,1.063,0,0,1,9,13.665ZM3.67,1.325A.647.647,0,0,1,4.329.67H7.31a.647.647,0,0,1,.658.655v.42H3.67ZM1.28,2.416h9.08a.6.6,0,0,1,0,1.209H1.28a.6.6,0,1,1,0-1.209Zm0,0" transform="translate(0.003 0.001)" fill="#c7112b"/>
		<path d="M163.734,154.7a.336.336,0,0,0-.336.336v6.347a.336.336,0,0,0,.672,0v-6.347A.336.336,0,0,0,163.734,154.7Zm0,0" transform="translate(-157.911 -149.509)" fill="#c7112b"/>
	</g>
</svg>