<svg xmlns="http://www.w3.org/2000/svg" width="17.41" height="17.41" viewBox="0 0 17.41 17.41"><g transform="translate(0 0)"><g transform="translate(0 0)"><path d="M16.307,1.1a3.778,3.778,0,0,0-5.337,0L.2,11.875a.683.683,0,0,0-.2.476s0,0,0,0V16.73a.68.68,0,0,0,.68.68H5.055a.684.684,0,0,0,.481-.2L16.307,6.44A3.778,3.778,0,0,0,16.307,1.1ZM1.36,16.05V14L3.413,16.05Zm3.695-.282L1.642,12.355l8.5-8.5,1.226,1.226L6.8,9.65a.68.68,0,1,0,.962.962l4.568-4.568L13.553,7.27Zm10.29-10.29-.83.83L11.1,2.9l.83-.83a2.413,2.413,0,1,1,3.413,3.413Z" transform="translate(0 0)" fill="#0a84ff"/></g></g></svg>