<svg xmlns="http://www.w3.org/2000/svg" width="24.302" height="24.302" viewBox="0 0 24.302 24.302"><g transform="translate(0.1 0.1)"><g transform="translate(0 2.008)"><path d="M20.587,42.667h-1a.5.5,0,1,0,0,1h1A2.513,2.513,0,0,1,23.1,46.182V61.245a2.513,2.513,0,0,1-2.511,2.511H3.515A2.513,2.513,0,0,1,1,61.245V46.182a2.513,2.513,0,0,1,2.511-2.511h1a.5.5,0,1,0,0-1h-1A3.519,3.519,0,0,0,0,46.182V61.245A3.519,3.519,0,0,0,3.515,64.76H20.587A3.519,3.519,0,0,0,24.1,61.245V46.182A3.519,3.519,0,0,0,20.587,42.667Z" transform="translate(0 -42.667)" fill="#c7112b" stroke="#c7112b" stroke-width="0.2"/></g><g transform="translate(8.034 2.008)"><path d="M178.2,42.667h-7.03a.5.5,0,1,0,0,1h7.03a.5.5,0,1,0,0-1Z" transform="translate(-170.666 -42.667)" fill="#c7112b" stroke="#c7112b" stroke-width="0.2"/></g><g transform="translate(0 7.03)"><path d="M23.6,149.333H.5a.5.5,0,1,0,0,1H23.6a.5.5,0,1,0,0-1Z" transform="translate(0 -149.333)" fill="#c7112b" stroke="#c7112b" stroke-width="0.2"/></g><g transform="translate(6.025)"><path d="M128.5,0a.5.5,0,0,0-.5.5V4.519a.5.5,0,1,0,1,0V.5A.5.5,0,0,0,128.5,0Z" transform="translate(-128)" fill="#c7112b" stroke="#c7112b" stroke-width="0.2"/></g><g transform="translate(17.072)"><path d="M363.168,0a.5.5,0,0,0-.5.5V4.519a.5.5,0,0,0,1,0V.5A.5.5,0,0,0,363.168,0Z" transform="translate(-362.666)" fill="#c7112b" stroke="#c7112b" stroke-width="0.2"/></g><g transform="translate(6.025 11.047)"><path d="M132.015,239.186A2.51,2.51,0,1,0,128,237.178a.5.5,0,1,0,1,0,1.506,1.506,0,1,1,1.506,1.506h-1a.5.5,0,0,0,0,1h1A1.506,1.506,0,1,1,129,241.195a.5.5,0,1,0-1,0,2.511,2.511,0,1,0,4.015-2.008Z" transform="translate(-128 -234.667)" fill="#c7112b" stroke="#c7112b" stroke-width="0.2"/></g><g transform="translate(13.056 11.046)"><path d="M280.052,234.7a.5.5,0,0,0-.547.108l-2.008,2.008a.5.5,0,1,0,.71.71l1.151-1.151V243.2a.5.5,0,0,0,1,0v-8.034A.5.5,0,0,0,280.052,234.7Z" transform="translate(-277.349 -234.661)" fill="#c7112b" stroke="#c7112b" stroke-width="0.2"/></g><g transform="translate(13.055 19.08)"><path d="M281.852,405.333h-4.017a.5.5,0,1,0,0,1h4.017a.5.5,0,0,0,0-1Z" transform="translate(-277.333 -405.333)" fill="#c7112b" stroke="#c7112b" stroke-width="0.2"/></g></g></svg>