<svg xmlns="http://www.w3.org/2000/svg" width="36.796" height="24.701" viewBox="0 0 36.796 24.701"><g transform="translate(0 0)"><path d="M33.616,0H3.18A3.184,3.184,0,0,0,0,3.18V21.52A3.184,3.184,0,0,0,3.18,24.7H33.616a3.184,3.184,0,0,0,3.18-3.18V3.18A3.184,3.184,0,0,0,33.616,0ZM35.7,21.52a2.09,2.09,0,0,1-2.088,2.088H3.18A2.09,2.09,0,0,1,1.093,21.52V3.18A2.09,2.09,0,0,1,3.18,1.093H33.616A2.09,2.09,0,0,1,35.7,3.18Zm0,0" fill="#c7112b"/><path d="M56.822,60.832H44.144a.547.547,0,0,0-.547.547V62.69a.547.547,0,0,0,1.093,0v-.765H56.276V75.259H44.691V64.876a.547.547,0,1,0-1.093,0V75.805a.547.547,0,0,0,.547.547H56.822a.547.547,0,0,0,.547-.547V61.378a.547.547,0,0,0-.547-.547Zm0,0" transform="translate(-40.464 -56.46)" fill="#c7112b"/><path d="M278.866,78.465h-13.7a.546.546,0,1,0,0,1.093h13.7a.546.546,0,0,0,0-1.093Zm0,0" transform="translate(-245.604 -72.826)" fill="#c7112b"/><path d="M416.255,133.625h-3.06a.546.546,0,0,0,0,1.093h3.06a.546.546,0,0,0,0-1.093Zm0,0" transform="translate(-382.992 -124.022)" fill="#c7112b"/><path d="M265.168,134.718h8.452a.546.546,0,1,0,0-1.093h-8.452a.546.546,0,1,0,0,1.093Zm0,0" transform="translate(-245.604 -124.022)" fill="#c7112b"/><path d="M278.866,188.785h-13.7a.546.546,0,1,0,0,1.093h13.7a.546.546,0,0,0,0-1.093Zm0,0" transform="translate(-245.604 -175.217)" fill="#c7112b"/><path d="M272.6,243.945h-7.432a.546.546,0,1,0,0,1.093H272.6a.546.546,0,0,0,0-1.093Zm0,0" transform="translate(-245.604 -226.413)" fill="#c7112b"/><path d="M86.18,110.755a.547.547,0,0,0,1.093,0,2.732,2.732,0,1,1,5.465,0,.546.546,0,0,0,1.093,0,3.826,3.826,0,0,0-1.857-3.279,3.826,3.826,0,1,0-3.936,0,3.827,3.827,0,0,0-1.858,3.279Zm1.093-6.558a2.732,2.732,0,1,1,2.732,2.732A2.735,2.735,0,0,1,87.273,104.2Zm0,0" transform="translate(-79.986 -93.158)" fill="#c7112b"/></g></svg>