<svg xmlns="http://www.w3.org/2000/svg" width="13.024" height="15.946" viewBox="0 0 13.024 15.946">
	<path d="M12.983,3.564l-.352-1.055a.982.982,0,0,0-.932-.672H8.739V.873A.874.874,0,0,0,7.866,0H5.156a.874.874,0,0,0-.873.873v.963H1.325a.982.982,0,0,0-.933.672L.04,3.564A.79.79,0,0,0,.789,4.6h.368l.81,10.016A1.449,1.449,0,0,0,3.4,15.945h6.38A1.449,1.449,0,0,0,11.22,14.62L12.03,4.6h.2a.79.79,0,0,0,.749-1.04ZM5.218.934H7.8v.9H5.218Zm5.07,13.611a.51.51,0,0,1-.5.467H3.4a.51.51,0,0,1-.5-.467L2.095,4.6h9ZM.99,3.669,1.278,2.8a.049.049,0,0,1,.046-.033H11.7a.049.049,0,0,1,.046.033l.289.865Zm0,0" transform="translate(0 0)" fill="#C7112B"/>
	<path d="M268.739,174.931h.025a.467.467,0,0,0,.466-.443l.439-8.421a.467.467,0,1,0-.933-.049l-.439,8.421A.467.467,0,0,0,268.739,174.931Zm0,0" transform="translate(-259.94 -160.42)" fill="#C7112B"/>
	<path d="M106.254,174.493a.467.467,0,0,0,.466.442h.026a.467.467,0,0,0,.441-.492l-.459-8.421a.467.467,0,1,0-.933.051Zm0,0" transform="translate(-102.499 -160.422)" fill="#fff"/>
	<path d="M194.721,174.935a.467.467,0,0,0,.467-.467v-8.421a.467.467,0,1,0-.934,0v8.421A.467.467,0,0,0,194.721,174.935Zm0,0" transform="translate(-188.204 -160.422)" fill="#C7112B"/>
</svg>