<svg xmlns="http://www.w3.org/2000/svg" width="13.733" height="13.733" viewBox="0 0 13.733 13.733">
	<g transform="translate(0)">
		<path d="M12.863.871a2.98,2.98,0,0,0-4.21,0l-8.5,8.5A.539.539,0,0,0,0,9.743s0,0,0,0V13.2a.537.537,0,0,0,.537.537H3.987a.539.539,0,0,0,.379-.157l8.5-8.5A2.98,2.98,0,0,0,12.863.871ZM1.073,12.661V11.042l1.619,1.619Zm2.914-.222L1.3,9.746,8,3.043l.967.967-3.6,3.6a.537.537,0,1,0,.759.759l3.6-3.6.967.967ZM12.1,4.322l-.654.654L8.758,2.284l.654-.654A1.9,1.9,0,1,1,12.1,4.322Z" transform="translate(0 0)" fill="#2a93fd"/>
	</g>
</svg>