<svg xmlns="http://www.w3.org/2000/svg" width="14" height="14" viewBox="0 0 14 14"><path d="M6.016,0H.547A.547.547,0,0,0,0,.547V6.016a.547.547,0,0,0,.547.547H6.016a.547.547,0,0,0,.547-.547V.547A.547.547,0,0,0,6.016,0ZM5.469,5.469H1.094V1.094H5.469Zm8.194,2.01a.547.547,0,0,0-.6.118L7.6,13.066A.547.547,0,0,0,7.984,14h5.469A.547.547,0,0,0,14,13.453V7.984a.547.547,0,0,0-.338-.505Zm-.756,5.427H9.3l3.6-3.6ZM10.719,6.562A3.281,3.281,0,1,0,7.437,3.281,3.285,3.285,0,0,0,10.719,6.562Zm0-5.469A2.187,2.187,0,1,1,8.531,3.281,2.19,2.19,0,0,1,10.719,1.094ZM6.4,8.371,4.055,10.719,6.4,13.066a.547.547,0,0,1-.773.773L3.281,11.492.933,13.84a.547.547,0,1,1-.773-.773l2.348-2.348L.16,8.371A.547.547,0,0,1,.933,7.6L3.281,9.945,5.629,7.6a.547.547,0,1,1,.773.774Zm0,0" transform="translate(0)" fill="#fff"/></svg>