<svg xmlns="http://www.w3.org/2000/svg" width="12.906" height="14" viewBox="0 0 12.906 14"><g transform="translate(-19.234)"><g transform="translate(19.234)"><path d="M384.844,14.476l1.485,1.238a.547.547,0,1,0,.7-.84l-1.485-1.238a.547.547,0,1,0-.7.84Z" transform="translate(-374.677 -13.14)" fill="#fff"/><path d="M33.592,15.842a.545.545,0,0,0,.35-.127l1.485-1.238a.547.547,0,1,0-.7-.84l-1.485,1.238a.547.547,0,0,0,.351.967Z" transform="translate(-32.688 -13.141)" fill="#fff"/><path d="M31.016,2.984A6.4,6.4,0,0,0,27,1.117V.547a.547.547,0,0,0-1.094,0v.57A6.453,6.453,0,0,0,21.89,12.11a6.454,6.454,0,0,0,8.387.635.547.547,0,1,0-.649-.881,5.352,5.352,0,1,1,1.523-1.738.547.547,0,0,0,.958.527,6.456,6.456,0,0,0-1.094-7.67Z" transform="translate(-20)" fill="#fff"/><g transform="matrix(-0.766, 0.643, -0.643, -0.766, 17.068, 6.563)"><path d="M219.758,151.269a.547.547,0,0,0-.769.081l-1.724,2.131a1.095,1.095,0,1,0,.85.688l1.724-2.131A.547.547,0,0,0,219.758,151.269Z" transform="translate(-208.589 -147.903)" fill="#fff"/></g></g></g></svg>