<svg xmlns="http://www.w3.org/2000/svg" width="11.062" height="14.749" viewBox="0 0 11.062 14.749"><path d="M9.07,3.687H5.075A1.077,1.077,0,0,1,4,2.612V1.69a.461.461,0,0,1,.461-.461h.986a1.69,1.69,0,0,1,3.252,0h.986a.461.461,0,0,1,.461.461v.922A1.077,1.077,0,0,1,9.07,3.687Z" transform="translate(-1.542)" fill="#c7112b"/><path d="M9.372,3H9.218v.768a1.691,1.691,0,0,1-1.69,1.69H3.534a1.691,1.691,0,0,1-1.69-1.69V3H1.69A1.691,1.691,0,0,0,0,4.69v9.525a1.691,1.691,0,0,0,1.69,1.69H9.372a1.691,1.691,0,0,0,1.69-1.69V4.69A1.691,1.691,0,0,0,9.372,3ZM8.757,14.062H2.3a.461.461,0,0,1,0-.922H8.757a.461.461,0,0,1,0,.922Zm0-1.844H2.3a.461.461,0,0,1,0-.922H8.757a.461.461,0,0,1,0,.922Zm0-1.844H2.3a.461.461,0,1,1,0-.922H8.757a.461.461,0,1,1,0,.922Zm0-1.844H2.3a.461.461,0,0,1,0-.922H8.757a.461.461,0,0,1,0,.922Z" transform="translate(0 -1.156)" fill="#c7112b"/></svg>